<svg width="99" height="83" viewBox="0 0 99 83" fill="none" xmlns="http://www.w3.org/2000/svg">
<g filter="url(#filter0_d_1_822)">
<path d="M10.6883 16.2884C-18.9773 -18.1105 77.0483 16.2884 77.0483 16.2884C77.0483 16.2884 115.19 92.6843 77.0482 69.6823C38.9068 46.6803 10.6883 69.6823 10.6883 69.6823C10.6883 69.6823 40.3539 50.6874 10.6883 16.2884Z" fill="#B40000"/>
<path d="M10.6883 16.2884C-18.9773 -18.1105 77.0483 16.2884 77.0483 16.2884C77.0483 16.2884 115.19 92.6843 77.0482 69.6823C38.9068 46.6803 10.6883 69.6823 10.6883 69.6823C10.6883 69.6823 40.3539 50.6874 10.6883 16.2884Z" fill="url(#paint0_linear_1_822)"/>
</g>
<path d="M35 31.966L39.106 28.172C43.908 30.496 46.954 32.262 52.35 36.11C62.496 24.596 69.202 18.754 81.664 11L83 14.072C72.722 23.04 65.196 33.03 54.358 52.468C47.672 44.596 43.21 39.576 35 31.966Z" fill="white"/>
<defs>
<filter id="filter0_d_1_822" x="0" y="0" width="99" height="83" filterUnits="userSpaceOnUse" color-interpolation-filters="sRGB">
<feFlood flood-opacity="0" result="BackgroundImageFix"/>
<feColorMatrix in="SourceAlpha" type="matrix" values="0 0 0 0 0 0 0 0 0 0 0 0 0 0 0 0 0 0 127 0" result="hardAlpha"/>
<feOffset dy="4"/>
<feGaussianBlur stdDeviation="2.5"/>
<feColorMatrix type="matrix" values="0 0 0 0 0.5125 0 0 0 0 0.5125 0 0 0 0 0.5125 0 0 0 0.25 0"/>
<feBlend mode="normal" in2="BackgroundImageFix" result="effect1_dropShadow_1_822"/>
<feBlend mode="normal" in="SourceGraphic" in2="effect1_dropShadow_1_822" result="shape"/>
</filter>
<linearGradient id="paint0_linear_1_822" x1="49.5" y1="1.00001" x2="49.5" y2="74" gradientUnits="userSpaceOnUse">
<stop stop-color="#FFC920"/>
<stop offset="1" stop-color="white" stop-opacity="0"/>
</linearGradient>
</defs>
</svg>
